<svg xmlns="http://www.w3.org/2000/svg" x="0px" y="0px" width="100" height="100" viewBox="0 0 24 24">
<path fill="#FFAB65" d="M21.4142,16.5114c-0.8356,4.1779 -9.4003,6.2669 -14.6227,5.2224c-4.17791,-1.5667 -0.52225,-6.2669 -3.13343,-8.878c-1.88297,-1.883 -2.08896,-7.31142 1.56671,-9.40038c3.65568,-2.08896 16.7117,-2.6112 14.6227,3.13345c-1.7091,4.70013 2.6112,4.70013 1.5668,9.92253Z"></path><path fill-rule="evenodd" d="M7.5,6c0,-0.27614 0.22386,-0.5 0.5,-0.5h8c0.2761,0 0.5,0.22386 0.5,0.5v12c0,0.2761 -0.2239,0.5 -0.5,0.5h-8c-0.27614,0 -0.5,-0.2239 -0.5,-0.5v-12Zm1,0.5v11h7v-11h-7Z"></path><g fill-rule="evenodd"><path d="M5.5,5c0,-0.82843 0.67157,-1.5 1.5,-1.5h10c0.8284,0 1.5,0.67157 1.5,1.5c0,0.82843 -0.6716,1.5 -1.5,1.5h-10c-0.82843,0 -1.5,-0.67157 -1.5,-1.5Zm1.5,-0.5c-0.27614,0 -0.5,0.22386 -0.5,0.5c0,0.27614 0.22386,0.5 0.5,0.5h10c0.2761,0 0.5,-0.22386 0.5,-0.5c0,-0.27614 -0.2239,-0.5 -0.5,-0.5h-10Z"></path><path d="M7.5,4c0,-1.933 1.567,-3.5 3.5,-3.5h2c1.933,0 3.5,1.567 3.5,3.5h-0.5v0.5h-8c-0.27614,0 -0.5,-0.22386 -0.5,-0.5Zm1.05001,-0.5h6.89999c-0.2316,-1.14112 -1.2405,-2 -2.45,-2h-2c-1.20948,0 -2.21836,0.85888 -2.44999,2Z"></path><path d="M7.5,20c0,1.933 1.567,3.5 3.5,3.5h2c1.933,0 3.5,-1.567 3.5,-3.5h-0.5v-0.5h-8c-0.27614,0 -0.5,0.2239 -0.5,0.5Zm1.05001,0.5h6.89999c-0.2316,1.1411 -1.2405,2 -2.45,2h-2c-1.20948,0 -2.21836,-0.8589 -2.44999,-2Z"></path><path d="M5.5,19c0,-0.8284 0.67157,-1.5 1.5,-1.5h10c0.8284,0 1.5,0.6716 1.5,1.5c0,0.8284 -0.6716,1.5 -1.5,1.5h-10c-0.82843,0 -1.5,-0.6716 -1.5,-1.5Zm1.5,-0.5c-0.27614,0 -0.5,0.2239 -0.5,0.5c0,0.2761 0.22386,0.5 0.5,0.5h10c0.2761,0 0.5,-0.2239 0.5,-0.5c0,-0.2761 -0.2239,-0.5 -0.5,-0.5h-10Z"></path><path d="M12.3536,5.64645c0.1952,0.19526 0.1952,0.51184 0,0.7071l-4.00005,4.00005c-0.19526,0.1952 -0.51184,0.1952 -0.7071,0c-0.19527,-0.1953 -0.19527,-0.51189 0,-0.70715l3.99995,-4c0.1953,-0.19527 0.5119,-0.19527 0.7072,0Zm4,0c0.1952,0.19526 0.1952,0.51184 0,0.7071l-8.00005,8.00005c-0.19526,0.1952 -0.51184,0.1952 -0.7071,0c-0.19527,-0.1953 -0.19527,-0.5119 0,-0.7072l7.99995,-7.99995c0.1953,-0.19527 0.5119,-0.19527 0.7072,0Zm0,4c0.1952,0.19526 0.1952,0.51185 0,0.70715l-8.00005,8c-0.19526,0.1952 -0.51184,0.1952 -0.7071,0c-0.19527,-0.1953 -0.19527,-0.5119 0,-0.7072l7.99995,-7.99995c0.1953,-0.19527 0.5119,-0.19527 0.7072,0Zm0,3.99995c0.1952,0.1953 0.1952,0.5119 0,0.7072l-4,4c-0.1953,0.1952 -0.5119,0.1952 -0.7072,0c-0.1952,-0.1953 -0.1952,-0.5119 0,-0.7072l4,-4c0.1953,-0.1952 0.5119,-0.1952 0.7072,0Z"></path></g>
</svg>